valid_reformated

The embedding sizes for train and test: torch.Size([196685, 128]) torch.Size([26966, 128])
Calculating eval distance map, between 26966 test ids and 5627 train EC cluster centers
############ EC calling results using maximum separation ############
---------------------------------------------------------------------------
>>> total samples: 26966 | total ec: 3489 
>>> precision: 0.921 | recall: 0.877| F1: 0.883 | AUC: 0.938 
---------------------------------------------------------------------------

test1_reformated

The embedding sizes for train and test: torch.Size([196685, 128]) torch.Size([24617, 128])
Calculating eval distance map, between 24617 test ids and 5627 train EC cluster centers
############ EC calling results using maximum separation ############
---------------------------------------------------------------------------
>>> total samples: 24617 | total ec: 4252 
>>> precision: 0.9 | recall: 0.854| F1: 0.859 | AUC: 0.927 
---------------------------------------------------------------------------

test2_reformated

The embedding sizes for train and test: torch.Size([196685, 128]) torch.Size([2104, 128])
Calculating eval distance map, between 2104 test ids and 5627 train EC cluster centers
############ EC calling results using maximum separation ############
---------------------------------------------------------------------------
>>> total samples: 2104 | total ec: 2351 
>>> precision: 0.659 | recall: 0.643| F1: 0.621 | AUC: 0.821 
---------------------------------------------------------------------------

